<svg width="247.65mm" height="95.25mm" viewBox="0 0 247.65 95.25" xmlns="http://www.w3.org/2000/svg"><g id="svgGroup" stroke-linecap="round" fill-rule="evenodd" font-size="9pt" stroke="#000" stroke-width="0.25mm" fill="none" style="stroke:#000;stroke-width:0.25mm;fill:none"><path d="M 0 95.25 L 247.65 95.25 L 247.65 0 L 0 0 L 0 95.25 Z M 21.575 21.575 L 35.575 21.575 L 35.575 35.575 L 21.575 35.575 L 21.575 21.575 Z M 21.575 40.625 L 35.575 40.625 L 35.575 54.625 L 21.575 54.625 L 21.575 40.625 Z M 21.575 59.675 L 35.575 59.675 L 35.575 73.675 L 21.575 73.675 L 21.575 59.675 Z M 21.575 78.725 L 35.575 78.725 L 35.575 92.725 L 21.575 92.725 L 21.575 78.725 Z M 21.575 2.525 L 35.575 2.525 L 35.575 16.525 L 21.575 16.525 L 21.575 2.525 Z M 40.625 2.525 L 54.625 2.525 L 54.625 16.525 L 40.625 16.525 L 40.625 2.525 Z M 59.675 2.525 L 73.675 2.525 L 73.675 16.525 L 59.675 16.525 L 59.675 2.525 Z M 78.725 2.525 L 92.725 2.525 L 92.725 16.525 L 78.725 16.525 L 78.725 2.525 Z M 97.775 2.525 L 111.775 2.525 L 111.775 16.525 L 97.775 16.525 L 97.775 2.525 Z M 135.875 2.525 L 149.875 2.525 L 149.875 16.525 L 135.875 16.525 L 135.875 2.525 Z M 154.925 2.525 L 168.925 2.525 L 168.925 16.525 L 154.925 16.525 L 154.925 2.525 Z M 173.975 2.525 L 187.975 2.525 L 187.975 16.525 L 173.975 16.525 L 173.975 2.525 Z M 193.025 2.525 L 207.025 2.525 L 207.025 16.525 L 193.025 16.525 L 193.025 2.525 Z M 212.075 2.525 L 226.075 2.525 L 226.075 16.525 L 212.075 16.525 L 212.075 2.525 Z M 231.125 2.525 L 245.125 2.525 L 245.125 16.525 L 231.125 16.525 L 231.125 2.525 Z M 2.525 21.575 L 16.525 21.575 L 16.525 35.575 L 2.525 35.575 L 2.525 21.575 Z M 40.625 21.575 L 54.625 21.575 L 54.625 35.575 L 40.625 35.575 L 40.625 21.575 Z M 59.675 21.575 L 73.675 21.575 L 73.675 35.575 L 59.675 35.575 L 59.675 21.575 Z M 78.725 21.575 L 92.725 21.575 L 92.725 35.575 L 78.725 35.575 L 78.725 21.575 Z M 97.775 21.575 L 111.775 21.575 L 111.775 35.575 L 97.775 35.575 L 97.775 21.575 Z M 135.875 21.575 L 149.875 21.575 L 149.875 35.575 L 135.875 35.575 L 135.875 21.575 Z M 154.925 21.575 L 168.925 21.575 L 168.925 35.575 L 154.925 35.575 L 154.925 21.575 Z M 173.975 21.575 L 187.975 21.575 L 187.975 35.575 L 173.975 35.575 L 173.975 21.575 Z M 193.025 21.575 L 207.025 21.575 L 207.025 35.575 L 193.025 35.575 L 193.025 21.575 Z M 212.075 21.575 L 226.075 21.575 L 226.075 35.575 L 212.075 35.575 L 212.075 21.575 Z M 231.125 21.575 L 245.125 21.575 L 245.125 35.575 L 231.125 35.575 L 231.125 21.575 Z M 2.525 40.625 L 16.525 40.625 L 16.525 54.625 L 2.525 54.625 L 2.525 40.625 Z M 40.625 40.625 L 54.625 40.625 L 54.625 54.625 L 40.625 54.625 L 40.625 40.625 Z M 59.675 40.625 L 73.675 40.625 L 73.675 54.625 L 59.675 54.625 L 59.675 40.625 Z M 78.725 40.625 L 92.725 40.625 L 92.725 54.625 L 78.725 54.625 L 78.725 40.625 Z M 97.775 40.625 L 111.775 40.625 L 111.775 54.625 L 97.775 54.625 L 97.775 40.625 Z M 135.875 40.625 L 149.875 40.625 L 149.875 54.625 L 135.875 54.625 L 135.875 40.625 Z M 154.925 40.625 L 168.925 40.625 L 168.925 54.625 L 154.925 54.625 L 154.925 40.625 Z M 173.975 40.625 L 187.975 40.625 L 187.975 54.625 L 173.975 54.625 L 173.975 40.625 Z M 193.025 40.625 L 207.025 40.625 L 207.025 54.625 L 193.025 54.625 L 193.025 40.625 Z M 212.075 40.625 L 226.075 40.625 L 226.075 54.625 L 212.075 54.625 L 212.075 40.625 Z M 231.125 40.625 L 245.125 40.625 L 245.125 54.625 L 231.125 54.625 L 231.125 40.625 Z M 2.525 59.675 L 16.525 59.675 L 16.525 73.675 L 2.525 73.675 L 2.525 59.675 Z M 40.625 59.675 L 54.625 59.675 L 54.625 73.675 L 40.625 73.675 L 40.625 59.675 Z M 59.675 59.675 L 73.675 59.675 L 73.675 73.675 L 59.675 73.675 L 59.675 59.675 Z M 78.725 59.675 L 92.725 59.675 L 92.725 73.675 L 78.725 73.675 L 78.725 59.675 Z M 97.775 59.675 L 111.775 59.675 L 111.775 73.675 L 97.775 73.675 L 97.775 59.675 Z M 135.875 59.675 L 149.875 59.675 L 149.875 73.675 L 135.875 73.675 L 135.875 59.675 Z M 154.925 59.675 L 168.925 59.675 L 168.925 73.675 L 154.925 73.675 L 154.925 59.675 Z M 173.975 59.675 L 187.975 59.675 L 187.975 73.675 L 173.975 73.675 L 173.975 59.675 Z M 193.025 59.675 L 207.025 59.675 L 207.025 73.675 L 193.025 73.675 L 193.025 59.675 Z M 212.075 59.675 L 226.075 59.675 L 226.075 73.675 L 212.075 73.675 L 212.075 59.675 Z M 231.125 59.675 L 245.125 59.675 L 245.125 73.675 L 231.125 73.675 L 231.125 59.675 Z M 2.525 78.725 L 16.525 78.725 L 16.525 92.725 L 2.525 92.725 L 2.525 78.725 Z M 40.625 78.725 L 54.625 78.725 L 54.625 92.725 L 40.625 92.725 L 40.625 78.725 Z M 59.675 78.725 L 73.675 78.725 L 73.675 92.725 L 59.675 92.725 L 59.675 78.725 Z M 78.725 78.725 L 92.725 78.725 L 92.725 92.725 L 78.725 92.725 L 78.725 78.725 Z M 107.3 78.725 L 121.3 78.725 L 121.3 92.725 L 107.3 92.725 L 107.3 78.725 Z M 135.875 78.725 L 149.875 78.725 L 149.875 92.725 L 135.875 92.725 L 135.875 78.725 Z M 154.925 78.725 L 168.925 78.725 L 168.925 92.725 L 154.925 92.725 L 154.925 78.725 Z M 173.975 78.725 L 187.975 78.725 L 187.975 92.725 L 173.975 92.725 L 173.975 78.725 Z M 193.025 78.725 L 207.025 78.725 L 207.025 92.725 L 193.025 92.725 L 193.025 78.725 Z M 212.075 78.725 L 226.075 78.725 L 226.075 92.725 L 212.075 92.725 L 212.075 78.725 Z M 231.125 78.725 L 245.125 78.725 L 245.125 92.725 L 231.125 92.725 L 231.125 78.725 Z M 2.525 2.525 L 16.525 2.525 L 16.525 16.525 L 2.525 16.525 L 2.525 2.525 Z M 116.825 2.525 L 130.825 2.525 L 130.825 16.525 L 116.825 16.525 L 116.825 2.525 Z M 116.825 21.575 L 130.825 21.575 L 130.825 35.575 L 116.825 35.575 L 116.825 21.575 Z M 116.825 40.625 L 130.825 40.625 L 130.825 54.625 L 116.825 54.625 L 116.825 40.625 Z M 116.825 59.675 L 130.825 59.675 L 130.825 73.675 L 116.825 73.675 L 116.825 59.675 Z M 98.862 79.725 L 105.862 79.725 L 105.862 94.725 L 98.862 94.725 L 98.862 79.725 Z M 122.738 79.725 L 129.738 79.725 L 129.738 94.725 L 122.738 94.725 L 122.738 79.725 Z" vector-effect="non-scaling-stroke"/></g></svg>