0
SECTION
2
HEADER
9
$INSUNITS
70
4
0
ENDSEC
0
SECTION
2
TABLES
0
TABLE
2
LTYPE
0
LTYPE
72
65
70
64
2
CONTINUOUS
3
______
73
0
40
0
0
ENDTAB
0
TABLE
2
LAYER
0
ENDTAB
0
ENDSEC
0
SECTION
2
ENTITIES
0
LINE
8
0
10
-15
20
-14.25
11
224
21
-14.25
0
LINE
8
0
10
-15
20
-14.25
11
-15
21
90.25
0
LINE
8
0
10
-15
20
90.25
11
224
21
90.25
0
LINE
8
0
10
224
20
-14.25
11
224
21
90.25
0
LINE
8
0
10
-8.75
20
-8.25
11
8.75
21
-8.25
0
LINE
8
0
10
8.75
20
-8.25
11
8.75
21
8.25
0
LINE
8
0
10
8.75
20
8.25
11
-8.75
21
8.25
0
LINE
8
0
10
-8.75
20
8.25
11
-8.75
21
-8.25
0
LINE
8
0
10
-8.75
20
10.75
11
8.75
21
10.75
0
LINE
8
0
10
8.75
20
10.75
11
8.75
21
27.25
0
LINE
8
0
10
8.75
20
27.25
11
-8.75
21
27.25
0
LINE
8
0
10
-8.75
20
27.25
11
-8.75
21
10.75
0
LINE
8
0
10
-8.75
20
29.75
11
8.75
21
29.75
0
LINE
8
0
10
8.75
20
29.75
11
8.75
21
46.25
0
LINE
8
0
10
8.75
20
46.25
11
-8.75
21
46.25
0
LINE
8
0
10
-8.75
20
46.25
11
-8.75
21
29.75
0
LINE
8
0
10
-8.75
20
48.75
11
8.75
21
48.75
0
LINE
8
0
10
8.75
20
48.75
11
8.75
21
65.25
0
LINE
8
0
10
8.75
20
65.25
11
-8.75
21
65.25
0
LINE
8
0
10
-8.75
20
65.25
11
-8.75
21
48.75
0
LINE
8
0
10
-8.75
20
67.75
11
8.75
21
67.75
0
LINE
8
0
10
8.75
20
67.75
11
8.75
21
84.25
0
LINE
8
0
10
8.75
20
84.25
11
-8.75
21
84.25
0
LINE
8
0
10
-8.75
20
84.25
11
-8.75
21
67.75
0
LINE
8
0
10
10.25
20
-8.25
11
27.75
21
-8.25
0
LINE
8
0
10
27.75
20
-8.25
11
27.75
21
8.25
0
LINE
8
0
10
27.75
20
8.25
11
10.25
21
8.25
0
LINE
8
0
10
10.25
20
8.25
11
10.25
21
-8.25
0
LINE
8
0
10
10.25
20
10.75
11
27.75
21
10.75
0
LINE
8
0
10
27.75
20
10.75
11
27.75
21
27.25
0
LINE
8
0
10
27.75
20
27.25
11
10.25
21
27.25
0
LINE
8
0
10
10.25
20
27.25
11
10.25
21
10.75
0
LINE
8
0
10
10.25
20
29.75
11
27.75
21
29.75
0
LINE
8
0
10
27.75
20
29.75
11
27.75
21
46.25
0
LINE
8
0
10
27.75
20
46.25
11
10.25
21
46.25
0
LINE
8
0
10
10.25
20
46.25
11
10.25
21
29.75
0
LINE
8
0
10
10.25
20
48.75
11
27.75
21
48.75
0
LINE
8
0
10
27.75
20
48.75
11
27.75
21
65.25
0
LINE
8
0
10
27.75
20
65.25
11
10.25
21
65.25
0
LINE
8
0
10
10.25
20
65.25
11
10.25
21
48.75
0
LINE
8
0
10
10.25
20
67.75
11
27.75
21
67.75
0
LINE
8
0
10
27.75
20
67.75
11
27.75
21
84.25
0
LINE
8
0
10
27.75
20
84.25
11
10.25
21
84.25
0
LINE
8
0
10
10.25
20
84.25
11
10.25
21
67.75
0
LINE
8
0
10
29.25
20
-8.25
11
46.75
21
-8.25
0
LINE
8
0
10
46.75
20
-8.25
11
46.75
21
8.25
0
LINE
8
0
10
46.75
20
8.25
11
29.25
21
8.25
0
LINE
8
0
10
29.25
20
8.25
11
29.25
21
-8.25
0
LINE
8
0
10
29.25
20
10.75
11
46.75
21
10.75
0
LINE
8
0
10
46.75
20
10.75
11
46.75
21
27.25
0
LINE
8
0
10
46.75
20
27.25
11
29.25
21
27.25
0
LINE
8
0
10
29.25
20
27.25
11
29.25
21
10.75
0
LINE
8
0
10
29.25
20
29.75
11
46.75
21
29.75
0
LINE
8
0
10
46.75
20
29.75
11
46.75
21
46.25
0
LINE
8
0
10
46.75
20
46.25
11
29.25
21
46.25
0
LINE
8
0
10
29.25
20
46.25
11
29.25
21
29.75
0
LINE
8
0
10
29.25
20
48.75
11
46.75
21
48.75
0
LINE
8
0
10
46.75
20
48.75
11
46.75
21
65.25
0
LINE
8
0
10
46.75
20
65.25
11
29.25
21
65.25
0
LINE
8
0
10
29.25
20
65.25
11
29.25
21
48.75
0
LINE
8
0
10
29.25
20
67.75
11
46.75
21
67.75
0
LINE
8
0
10
46.75
20
67.75
11
46.75
21
84.25
0
LINE
8
0
10
46.75
20
84.25
11
29.25
21
84.25
0
LINE
8
0
10
29.25
20
84.25
11
29.25
21
67.75
0
LINE
8
0
10
48.25
20
-8.25
11
65.75
21
-8.25
0
LINE
8
0
10
65.75
20
-8.25
11
65.75
21
8.25
0
LINE
8
0
10
65.75
20
8.25
11
48.25
21
8.25
0
LINE
8
0
10
48.25
20
8.25
11
48.25
21
-8.25
0
LINE
8
0
10
48.25
20
10.75
11
65.75
21
10.75
0
LINE
8
0
10
65.75
20
10.75
11
65.75
21
27.25
0
LINE
8
0
10
65.75
20
27.25
11
48.25
21
27.25
0
LINE
8
0
10
48.25
20
27.25
11
48.25
21
10.75
0
LINE
8
0
10
48.25
20
29.75
11
65.75
21
29.75
0
LINE
8
0
10
65.75
20
29.75
11
65.75
21
46.25
0
LINE
8
0
10
65.75
20
46.25
11
48.25
21
46.25
0
LINE
8
0
10
48.25
20
46.25
11
48.25
21
29.75
0
LINE
8
0
10
48.25
20
48.75
11
65.75
21
48.75
0
LINE
8
0
10
65.75
20
48.75
11
65.75
21
65.25
0
LINE
8
0
10
65.75
20
65.25
11
48.25
21
65.25
0
LINE
8
0
10
48.25
20
65.25
11
48.25
21
48.75
0
LINE
8
0
10
48.25
20
67.75
11
65.75
21
67.75
0
LINE
8
0
10
65.75
20
67.75
11
65.75
21
84.25
0
LINE
8
0
10
65.75
20
84.25
11
48.25
21
84.25
0
LINE
8
0
10
48.25
20
84.25
11
48.25
21
67.75
0
LINE
8
0
10
67.25
20
-8.25
11
84.75
21
-8.25
0
LINE
8
0
10
84.75
20
-8.25
11
84.75
21
8.25
0
LINE
8
0
10
84.75
20
8.25
11
67.25
21
8.25
0
LINE
8
0
10
67.25
20
8.25
11
67.25
21
-8.25
0
LINE
8
0
10
67.25
20
10.75
11
84.75
21
10.75
0
LINE
8
0
10
84.75
20
10.75
11
84.75
21
27.25
0
LINE
8
0
10
84.75
20
27.25
11
67.25
21
27.25
0
LINE
8
0
10
67.25
20
27.25
11
67.25
21
10.75
0
LINE
8
0
10
67.25
20
29.75
11
84.75
21
29.75
0
LINE
8
0
10
84.75
20
29.75
11
84.75
21
46.25
0
LINE
8
0
10
84.75
20
46.25
11
67.25
21
46.25
0
LINE
8
0
10
67.25
20
46.25
11
67.25
21
29.75
0
LINE
8
0
10
67.25
20
48.75
11
84.75
21
48.75
0
LINE
8
0
10
84.75
20
48.75
11
84.75
21
65.25
0
LINE
8
0
10
84.75
20
65.25
11
67.25
21
65.25
0
LINE
8
0
10
67.25
20
65.25
11
67.25
21
48.75
0
LINE
8
0
10
67.25
20
67.75
11
84.75
21
67.75
0
LINE
8
0
10
84.75
20
67.75
11
84.75
21
84.25
0
LINE
8
0
10
84.75
20
84.25
11
67.25
21
84.25
0
LINE
8
0
10
67.25
20
84.25
11
67.25
21
67.75
0
LINE
8
0
10
86.25
20
10.75
11
103.75
21
10.75
0
LINE
8
0
10
103.75
20
10.75
11
103.75
21
27.25
0
LINE
8
0
10
103.75
20
27.25
11
86.25
21
27.25
0
LINE
8
0
10
86.25
20
27.25
11
86.25
21
10.75
0
LINE
8
0
10
86.25
20
29.75
11
103.75
21
29.75
0
LINE
8
0
10
103.75
20
29.75
11
103.75
21
46.25
0
LINE
8
0
10
103.75
20
46.25
11
86.25
21
46.25
0
LINE
8
0
10
86.25
20
46.25
11
86.25
21
29.75
0
LINE
8
0
10
86.25
20
48.75
11
103.75
21
48.75
0
LINE
8
0
10
103.75
20
48.75
11
103.75
21
65.25
0
LINE
8
0
10
103.75
20
65.25
11
86.25
21
65.25
0
LINE
8
0
10
86.25
20
65.25
11
86.25
21
48.75
0
LINE
8
0
10
86.25
20
67.75
11
103.75
21
67.75
0
LINE
8
0
10
103.75
20
67.75
11
103.75
21
84.25
0
LINE
8
0
10
103.75
20
84.25
11
86.25
21
84.25
0
LINE
8
0
10
86.25
20
84.25
11
86.25
21
67.75
0
LINE
8
0
10
95.75
20
-8.25
11
113.25
21
-8.25
0
LINE
8
0
10
113.25
20
-8.25
11
113.25
21
8.25
0
LINE
8
0
10
113.25
20
8.25
11
95.75
21
8.25
0
LINE
8
0
10
95.75
20
8.25
11
95.75
21
-8.25
0
LINE
8
0
10
200.25
20
-8.25
11
217.75
21
-8.25
0
LINE
8
0
10
217.75
20
-8.25
11
217.75
21
8.25
0
LINE
8
0
10
217.75
20
8.25
11
200.25
21
8.25
0
LINE
8
0
10
200.25
20
8.25
11
200.25
21
-8.25
0
LINE
8
0
10
200.25
20
10.75
11
217.75
21
10.75
0
LINE
8
0
10
217.75
20
10.75
11
217.75
21
27.25
0
LINE
8
0
10
217.75
20
27.25
11
200.25
21
27.25
0
LINE
8
0
10
200.25
20
27.25
11
200.25
21
10.75
0
LINE
8
0
10
200.25
20
29.75
11
217.75
21
29.75
0
LINE
8
0
10
217.75
20
29.75
11
217.75
21
46.25
0
LINE
8
0
10
217.75
20
46.25
11
200.25
21
46.25
0
LINE
8
0
10
200.25
20
46.25
11
200.25
21
29.75
0
LINE
8
0
10
200.25
20
48.75
11
217.75
21
48.75
0
LINE
8
0
10
217.75
20
48.75
11
217.75
21
65.25
0
LINE
8
0
10
217.75
20
65.25
11
200.25
21
65.25
0
LINE
8
0
10
200.25
20
65.25
11
200.25
21
48.75
0
LINE
8
0
10
200.25
20
67.75
11
217.75
21
67.75
0
LINE
8
0
10
217.75
20
67.75
11
217.75
21
84.25
0
LINE
8
0
10
217.75
20
84.25
11
200.25
21
84.25
0
LINE
8
0
10
200.25
20
84.25
11
200.25
21
67.75
0
LINE
8
0
10
181.25
20
-8.25
11
198.75
21
-8.25
0
LINE
8
0
10
198.75
20
-8.25
11
198.75
21
8.25
0
LINE
8
0
10
198.75
20
8.25
11
181.25
21
8.25
0
LINE
8
0
10
181.25
20
8.25
11
181.25
21
-8.25
0
LINE
8
0
10
181.25
20
10.75
11
198.75
21
10.75
0
LINE
8
0
10
198.75
20
10.75
11
198.75
21
27.25
0
LINE
8
0
10
198.75
20
27.25
11
181.25
21
27.25
0
LINE
8
0
10
181.25
20
27.25
11
181.25
21
10.75
0
LINE
8
0
10
181.25
20
29.75
11
198.75
21
29.75
0
LINE
8
0
10
198.75
20
29.75
11
198.75
21
46.25
0
LINE
8
0
10
198.75
20
46.25
11
181.25
21
46.25
0
LINE
8
0
10
181.25
20
46.25
11
181.25
21
29.75
0
LINE
8
0
10
181.25
20
48.75
11
198.75
21
48.75
0
LINE
8
0
10
198.75
20
48.75
11
198.75
21
65.25
0
LINE
8
0
10
198.75
20
65.25
11
181.25
21
65.25
0
LINE
8
0
10
181.25
20
65.25
11
181.25
21
48.75
0
LINE
8
0
10
181.25
20
67.75
11
198.75
21
67.75
0
LINE
8
0
10
198.75
20
67.75
11
198.75
21
84.25
0
LINE
8
0
10
198.75
20
84.25
11
181.25
21
84.25
0
LINE
8
0
10
181.25
20
84.25
11
181.25
21
67.75
0
LINE
8
0
10
162.25
20
-8.25
11
179.75
21
-8.25
0
LINE
8
0
10
179.75
20
-8.25
11
179.75
21
8.25
0
LINE
8
0
10
179.75
20
8.25
11
162.25
21
8.25
0
LINE
8
0
10
162.25
20
8.25
11
162.25
21
-8.25
0
LINE
8
0
10
162.25
20
10.75
11
179.75
21
10.75
0
LINE
8
0
10
179.75
20
10.75
11
179.75
21
27.25
0
LINE
8
0
10
179.75
20
27.25
11
162.25
21
27.25
0
LINE
8
0
10
162.25
20
27.25
11
162.25
21
10.75
0
LINE
8
0
10
162.25
20
29.75
11
179.75
21
29.75
0
LINE
8
0
10
179.75
20
29.75
11
179.75
21
46.25
0
LINE
8
0
10
179.75
20
46.25
11
162.25
21
46.25
0
LINE
8
0
10
162.25
20
46.25
11
162.25
21
29.75
0
LINE
8
0
10
162.25
20
48.75
11
179.75
21
48.75
0
LINE
8
0
10
179.75
20
48.75
11
179.75
21
65.25
0
LINE
8
0
10
179.75
20
65.25
11
162.25
21
65.25
0
LINE
8
0
10
162.25
20
65.25
11
162.25
21
48.75
0
LINE
8
0
10
162.25
20
67.75
11
179.75
21
67.75
0
LINE
8
0
10
179.75
20
67.75
11
179.75
21
84.25
0
LINE
8
0
10
179.75
20
84.25
11
162.25
21
84.25
0
LINE
8
0
10
162.25
20
84.25
11
162.25
21
67.75
0
LINE
8
0
10
143.25
20
-8.25
11
160.75
21
-8.25
0
LINE
8
0
10
160.75
20
-8.25
11
160.75
21
8.25
0
LINE
8
0
10
160.75
20
8.25
11
143.25
21
8.25
0
LINE
8
0
10
143.25
20
8.25
11
143.25
21
-8.25
0
LINE
8
0
10
143.25
20
10.75
11
160.75
21
10.75
0
LINE
8
0
10
160.75
20
10.75
11
160.75
21
27.25
0
LINE
8
0
10
160.75
20
27.25
11
143.25
21
27.25
0
LINE
8
0
10
143.25
20
27.25
11
143.25
21
10.75
0
LINE
8
0
10
143.25
20
29.75
11
160.75
21
29.75
0
LINE
8
0
10
160.75
20
29.75
11
160.75
21
46.25
0
LINE
8
0
10
160.75
20
46.25
11
143.25
21
46.25
0
LINE
8
0
10
143.25
20
46.25
11
143.25
21
29.75
0
LINE
8
0
10
143.25
20
48.75
11
160.75
21
48.75
0
LINE
8
0
10
160.75
20
48.75
11
160.75
21
65.25
0
LINE
8
0
10
160.75
20
65.25
11
143.25
21
65.25
0
LINE
8
0
10
143.25
20
65.25
11
143.25
21
48.75
0
LINE
8
0
10
143.25
20
67.75
11
160.75
21
67.75
0
LINE
8
0
10
160.75
20
67.75
11
160.75
21
84.25
0
LINE
8
0
10
160.75
20
84.25
11
143.25
21
84.25
0
LINE
8
0
10
143.25
20
84.25
11
143.25
21
67.75
0
LINE
8
0
10
124.25
20
-8.25
11
141.75
21
-8.25
0
LINE
8
0
10
141.75
20
-8.25
11
141.75
21
8.25
0
LINE
8
0
10
141.75
20
8.25
11
124.25
21
8.25
0
LINE
8
0
10
124.25
20
8.25
11
124.25
21
-8.25
0
LINE
8
0
10
124.25
20
10.75
11
141.75
21
10.75
0
LINE
8
0
10
141.75
20
10.75
11
141.75
21
27.25
0
LINE
8
0
10
141.75
20
27.25
11
124.25
21
27.25
0
LINE
8
0
10
124.25
20
27.25
11
124.25
21
10.75
0
LINE
8
0
10
124.25
20
29.75
11
141.75
21
29.75
0
LINE
8
0
10
141.75
20
29.75
11
141.75
21
46.25
0
LINE
8
0
10
141.75
20
46.25
11
124.25
21
46.25
0
LINE
8
0
10
124.25
20
46.25
11
124.25
21
29.75
0
LINE
8
0
10
124.25
20
48.75
11
141.75
21
48.75
0
LINE
8
0
10
141.75
20
48.75
11
141.75
21
65.25
0
LINE
8
0
10
141.75
20
65.25
11
124.25
21
65.25
0
LINE
8
0
10
124.25
20
65.25
11
124.25
21
48.75
0
LINE
8
0
10
124.25
20
67.75
11
141.75
21
67.75
0
LINE
8
0
10
141.75
20
67.75
11
141.75
21
84.25
0
LINE
8
0
10
141.75
20
84.25
11
124.25
21
84.25
0
LINE
8
0
10
124.25
20
84.25
11
124.25
21
67.75
0
LINE
8
0
10
105.25
20
10.75
11
122.75
21
10.75
0
LINE
8
0
10
122.75
20
10.75
11
122.75
21
27.25
0
LINE
8
0
10
122.75
20
27.25
11
105.25
21
27.25
0
LINE
8
0
10
105.25
20
27.25
11
105.25
21
10.75
0
LINE
8
0
10
105.25
20
29.75
11
122.75
21
29.75
0
LINE
8
0
10
122.75
20
29.75
11
122.75
21
46.25
0
LINE
8
0
10
122.75
20
46.25
11
105.25
21
46.25
0
LINE
8
0
10
105.25
20
46.25
11
105.25
21
29.75
0
LINE
8
0
10
105.25
20
48.75
11
122.75
21
48.75
0
LINE
8
0
10
122.75
20
48.75
11
122.75
21
65.25
0
LINE
8
0
10
122.75
20
65.25
11
105.25
21
65.25
0
LINE
8
0
10
105.25
20
65.25
11
105.25
21
48.75
0
LINE
8
0
10
105.25
20
67.75
11
122.75
21
67.75
0
LINE
8
0
10
122.75
20
67.75
11
122.75
21
84.25
0
LINE
8
0
10
122.75
20
84.25
11
105.25
21
84.25
0
LINE
8
0
10
105.25
20
84.25
11
105.25
21
67.75
0
ENDSEC
0
EOF